# xmcd
#
# Track frame offsets:
#	150
#	9922
#	22240
#	32901
#	41976
#	59227
#	76119
#	87262
#	98075
#	112519
#	125060
#	135350
#	147126
#	157967
#	170224
#	179561
#	190229
#	209047
#	220197
#	226078
#
# Disc length: 3136 seconds
#
# Revision: 6
# Processed by: cddbd v1.5.2PL0 Copyright (c) Steve Scherf et al.
# Submitted via: audiograbber 1.83.01
#
DISCID=190c3e14
DTITLE=Various Artist - 20 Country Greats  [CD03)
DYEAR=1900
DGENRE=Oldies
TTITLE0=Carl Perkins - All Shook Up
TTITLE1=Bill Monroe - Mule Skinner Blues
TTITLE2=Dolly Parton - It Wasn't God Who Made Honkey
TTITLE3=Jimmy Dean - It'll Be Easy
TTITLE4=Johnny Paycheck - Come Home To My Heart
TTITLE5=Merle Haggard - Faded Love
TTITLE6=Patsy Cline - Hungry For Love
TTITLE7=Ferlin Husky - Baby For You
TTITLE8=David Frizzell - I Love You A Thousand Ways
TTITLE9=Burl Ives - Another Day, Another Year
TTITLE10=Johnny Cash - Get Rhythm
TTITLE11=Johnny Lee - Congratulations
TTITLE12=Kenny Rogers - Always Leaving, Always Gone
TTITLE13=Lee Greenwood - It Turns Me Inside Out
TTITLE14=Mickey Gilley - Caught In The Middle
TTITLE15=Patsy Cline - Honky Tonk Merry Go Around
TTITLE16=Razzy Bailey - I Keep Coming Back
TTITLE17=Waylon Jennings - Big Mamou
TTITLE18=Jim Reeves - Have I Told You Lately That I Love You
TTITLE19=Kenny Rogers - Camptown Ladies
EXTD=
EXTT0=
EXTT1=
EXTT2=
EXTT3=
EXTT4=
EXTT5=
EXTT6=
EXTT7=
EXTT8=
EXTT9=
EXTT10=
EXTT11=
EXTT12=
EXTT13=
EXTT14=
EXTT15=
EXTT16=
EXTT17=
EXTT18=
EXTT19=
PLAYORDER=
